<?xml version="1.0" standalone="no"?><!DOCTYPE svg PUBLIC "-//W3C//DTD SVG 1.1//EN" "http://www.w3.org/Graphics/SVG/1.1/DTD/svg11.dtd"><svg t="1714457318890" class="icon" viewBox="0 0 1024 1024" version="1.1" xmlns="http://www.w3.org/2000/svg" p-id="1474" width="128" height="128" xmlns:xlink="http://www.w3.org/1999/xlink"><path d="M868.72 251.95v384.79l-232 232H251.95a96.65 96.65 0 0 1-96.66-96.66V251.95a96.65 96.65 0 0 1 96.66-96.66h520.11a96.65 96.65 0 0 1 96.66 96.66z" fill="#FFFFFF" p-id="1475"></path><path d="M256.66 146.37h492.85A110.29 110.29 0 0 1 859.8 256.66v139.41H146.37V256.66a110.29 110.29 0 0 1 110.29-110.29z" fill="#70C3F2" p-id="1476"></path><path d="M155.29 454.47h713.43v69.04H155.29zM155.29 592.55h713.43v39.3A29.75 29.75 0 0 1 839 661.59H155.29v-69-0.04zM155.29 730.63h529.32v69.04H155.29z" fill="#EBF4FC" p-id="1477"></path><path d="M868.72 394.7H703a9.5 9.5 0 1 1 0-19h165.7a9.5 9.5 0 0 1 0 19zM594.63 394.7H155.28a9.5 9.5 0 1 1 0-19h439.35a9.5 9.5 0 0 1 0 19z" fill="#205081" p-id="1478"></path><path d="M636.73 878.22H251.94a106.3 106.3 0 0 1-106.16-106.16V251.94a106.3 106.3 0 0 1 106.16-106.16h520.12a106.3 106.3 0 0 1 106.16 106.16v384.8a9.5 9.5 0 0 1-2.78 6.72l-232 232a9.5 9.5 0 0 1-6.71 2.76zM251.94 164.79a87.25 87.25 0 0 0-87.16 87.16v520.11a87.25 87.25 0 0 0 87.16 87.16h380.85l226.42-226.4V251.94a87.25 87.25 0 0 0-87.16-87.16z m616.77 472z" fill="#205081" p-id="1479"></path><path d="M431.92 270.13a38.6 38.6 0 0 1-38.66 38.66 37.92 37.92 0 0 1-36.13-25.54 31.74 31.74 0 0 0 13.12 2.53 38.6 38.6 0 0 0 38.66-38.66 31.72 31.72 0 0 0-2.54-13.12 37.92 37.92 0 0 1 25.55 36.13zM715.45 270.13a38.6 38.6 0 0 1-38.67 38.66 37.92 37.92 0 0 1-36.13-25.54 31.72 31.72 0 0 0 13.11 2.53 38.6 38.6 0 0 0 38.67-38.66A31.72 31.72 0 0 0 689.9 234a37.93 37.93 0 0 1 25.55 36.13z" fill="#59AFE1" p-id="1480"></path><path d="M724.88 443.65l-302.4 302.4-94.13-94.35 266.28-266.5 35.9-35.9a26.11 26.11 0 0 1 36.82 0L703 385.2l21.86 21.86a25.84 25.84 0 0 1 0.02 36.59z" fill="#F6C242" p-id="1481"></path><path d="M422.49 759.51L314.93 651.69l308.88-309.12c13.37-13.35 36.89-13.38 50.25 0l57.55 57.77a35.43 35.43 0 0 1 0 50z m-80.72-107.82l80.71 80.9 295.69-295.66a16.41 16.41 0 0 0 0-23.15L660.6 356a16.53 16.53 0 0 0-23.35 0z" fill="#205081" p-id="1482"></path><path d="M422.56 746l-94.31-94.31-43.15 129.43a6.33 6.33 0 0 0 8 8z" fill="#59AFE1" p-id="1483"></path><path d="M291.08 799a15.84 15.84 0 0 1-15-20.87l43.14-129.44a9.5 9.5 0 0 1 6.83-6.24A9.35 9.35 0 0 1 335 645l94.32 94.3a9.51 9.51 0 0 1-3.75 15.7l-129.45 43.16a15.88 15.88 0 0 1-5.04 0.84z m41.32-129.7l-36.28 108.81L405 741.82z" fill="#205081" p-id="1484"></path><path d="M408.9 247.11a38.6 38.6 0 0 1-38.66 38.66 31.74 31.74 0 0 1-13.12-2.53 37.93 37.93 0 0 1-25.55-36.13 38.6 38.6 0 0 1 38.67-38.66A37.92 37.92 0 0 1 406.37 234a31.72 31.72 0 0 1 2.53 13.11z" fill="#FFFFFF" p-id="1485"></path><path d="M370.25 295.29a41.05 41.05 0 0 1-17-3.36c-18.32-6.14-31.19-24.28-31.19-44.81a48.22 48.22 0 0 1 48.17-48.17 47.44 47.44 0 0 1 45.13 32 39.63 39.63 0 0 1 3 16.17 48.22 48.22 0 0 1-48.11 48.17z m0-77.34a29.2 29.2 0 0 0-29.16 29.16 28.43 28.43 0 0 0 19.08 27.12c18.71 8.08 39.22-7.43 39.22-27.12a22.14 22.14 0 0 0-1.71-9.26A28.79 28.79 0 0 0 370.25 218z" fill="#205081" p-id="1486"></path><path d="M692.43 247.11a38.6 38.6 0 0 1-38.67 38.66 31.72 31.72 0 0 1-13.11-2.53 37.92 37.92 0 0 1-25.55-36.13 38.6 38.6 0 0 1 38.66-38.66A37.92 37.92 0 0 1 689.9 234a31.72 31.72 0 0 1 2.53 13.11z" fill="#FFFFFF" p-id="1487"></path><path d="M653.77 295.29a41.05 41.05 0 0 1-17-3.36c-18.32-6.14-31.19-24.28-31.19-44.81a48.22 48.22 0 0 1 48.17-48.17 47.41 47.41 0 0 1 45.13 32 39.12 39.12 0 0 1 3 16.17 48.22 48.22 0 0 1-48.11 48.17z m0-77.34a29.2 29.2 0 0 0-29.16 29.16 28.43 28.43 0 0 0 19.08 27.12c18.71 8.08 39.24-7.43 39.24-27.12a22 22 0 0 0-1.71-9.24A28.82 28.82 0 0 0 653.77 218z" fill="#205081" p-id="1488"></path><path d="M868.72 636.64H733.31a96.68 96.68 0 0 0-96.68 96.68v135.4z" fill="#59AFE1" p-id="1489"></path><path d="M636.64 878.22a9.5 9.5 0 0 1-9.5-9.5V733.31a106.3 106.3 0 0 1 106.17-106.18h135.4a9.5 9.5 0 0 1 6.72 16.22L643.36 875.44a9.5 9.5 0 0 1-6.72 2.78z m96.68-232.08a87.28 87.28 0 0 0-87.17 87.17v112.46l199.62-199.63z" fill="#205081" p-id="1490"></path></svg>